<svg width="50" height="51" viewBox="0 0 50 51" fill="none" xmlns="http://www.w3.org/2000/svg">
<rect y="0.5" width="50" height="50" rx="25" fill="#EBE1F9"/>
<path d="M27.2219 16.053C27.2468 15.9577 27.2905 15.8683 27.3505 15.79C27.4104 15.7118 27.4854 15.6463 27.5709 15.5974C27.6565 15.5485 27.751 15.5172 27.8488 15.5053C27.9466 15.4934 28.0458 15.5011 28.1406 15.528C29.5387 15.903 30.8136 16.6392 31.8371 17.6628C32.8607 18.6863 33.5969 19.9612 33.9719 21.3593C33.9988 21.4541 34.0065 21.5533 33.9946 21.6511C33.9827 21.7489 33.9513 21.8434 33.9024 21.929C33.8535 22.0145 33.7881 22.0895 33.7098 22.1494C33.6316 22.2093 33.5422 22.2531 33.4469 22.278C33.3829 22.2965 33.3166 22.306 33.25 22.3061C33.0845 22.3052 32.9239 22.2495 32.7933 22.1477C32.6627 22.046 32.5695 21.9039 32.5281 21.7436C32.2162 20.602 31.6121 19.5615 30.7752 18.7246C29.9384 17.8878 28.8979 17.2837 27.7562 16.9718C27.6601 16.9478 27.5697 16.9049 27.4904 16.8454C27.4111 16.7859 27.3446 16.7111 27.2948 16.6254C27.2449 16.5397 27.2128 16.4449 27.2003 16.3466C27.1878 16.2483 27.1951 16.1484 27.2219 16.053ZM26.9781 19.8686C27.6127 20.0423 28.1911 20.3784 28.6563 20.8436C29.1215 21.3088 29.4575 21.8872 29.6312 22.5218C29.6712 22.6828 29.764 22.8258 29.8949 22.9278C30.0258 23.0298 30.1872 23.0849 30.3531 23.0843C30.4167 23.0849 30.48 23.0754 30.5406 23.0561C30.6368 23.0322 30.7272 22.9892 30.8065 22.9297C30.8857 22.8702 30.9523 22.7954 31.0021 22.7098C31.0519 22.6241 31.0841 22.5293 31.0966 22.431C31.1091 22.3326 31.1018 22.2328 31.075 22.1374C30.8382 21.2463 30.3702 20.4336 29.7182 19.7817C29.0663 19.1297 28.2536 18.6616 27.3625 18.4249C27.2647 18.3892 27.1605 18.3744 27.0566 18.3812C26.9527 18.388 26.8514 18.4164 26.759 18.4645C26.6667 18.5127 26.5854 18.5795 26.5203 18.6608C26.4553 18.7421 26.4078 18.836 26.381 18.9366C26.3542 19.0372 26.3487 19.1423 26.3647 19.2452C26.3808 19.3481 26.4181 19.4465 26.4743 19.5342C26.5304 19.6218 26.6042 19.6969 26.691 19.7544C26.7777 19.812 26.8755 19.8509 26.9781 19.8686ZM34.7125 28.9155C34.5467 30.1815 33.9267 31.3442 32.9679 32.1875C32.0092 33.0307 30.7768 33.4971 29.5 33.4999C22.0562 33.4999 16 27.4436 16 19.9999C16.0028 18.7231 16.4692 17.4907 17.3124 16.5319C18.1557 15.5732 19.3184 14.9532 20.5844 14.7874C20.9071 14.7516 21.2328 14.8195 21.5144 14.9814C21.7959 15.1432 22.0185 15.3905 22.15 15.6874L24.0344 20.0843C24.1321 20.3125 24.1713 20.5615 24.1484 20.8087C24.1255 21.0559 24.0412 21.2935 23.9031 21.4999L22.3469 23.8811C23.0516 25.3113 24.2127 26.4658 25.6469 27.1624L28 25.5968C28.2061 25.4578 28.4443 25.3737 28.692 25.3524C28.9397 25.331 29.1888 25.3732 29.4156 25.4749L33.8125 27.3499C34.1094 27.4814 34.3567 27.704 34.5185 27.9855C34.6803 28.267 34.7483 28.5928 34.7125 28.9155ZM33.2219 28.728L28.825 26.853L26.4812 28.4186C26.2656 28.5612 26.0168 28.6456 25.7589 28.6637C25.501 28.6818 25.2428 28.6329 25.0094 28.5218C23.2628 27.6769 21.8499 26.2707 20.9969 24.528C20.8844 24.2954 20.8339 24.0376 20.8504 23.7798C20.8668 23.5219 20.9495 23.2726 21.0906 23.0561L22.6562 20.6749L20.7719 16.278C19.8671 16.3943 19.0358 16.8364 18.4336 17.5215C17.8313 18.2066 17.4994 19.0877 17.5 19.9999C17.5025 23.1817 18.7676 26.2325 21.0175 28.4824C23.2674 30.7323 26.3182 31.9974 29.5 31.9999C30.4122 32.0005 31.2933 31.6686 31.9784 31.0663C32.6635 30.4641 33.1056 29.6327 33.2219 28.728Z" fill="#221207"/>
</svg>
