<svg width="20" height="20" viewBox="0 0 20 20" fill="none" xmlns="http://www.w3.org/2000/svg">
<path d="M9.99998 2.03125C8.61043 2.03148 7.24508 2.39505 6.03943 3.0859C4.83378 3.77676 3.82974 4.77086 3.12693 5.96958C2.42412 7.1683 2.04698 8.52996 2.03294 9.91945C2.01889 11.3089 2.36843 12.6779 3.04686 13.8906L2.35936 16.2891C2.30322 16.4768 2.29891 16.6762 2.34689 16.8661C2.39487 17.0561 2.49335 17.2296 2.63189 17.3681C2.77043 17.5066 2.94388 17.6051 3.13384 17.6531C3.3238 17.7011 3.52321 17.6968 3.71092 17.6406L6.10936 16.9531C7.17209 17.5481 8.35708 17.8916 9.57328 17.9572C10.7895 18.0228 12.0045 17.8087 13.1251 17.3314C14.2456 16.8541 15.2419 16.1263 16.0372 15.2039C16.8326 14.2815 17.406 13.1891 17.7133 12.0105C18.0205 10.8319 18.0536 9.59862 17.8099 8.40529C17.5661 7.21196 17.0521 6.09038 16.3072 5.12672C15.5624 4.16306 14.6066 3.38296 13.5132 2.84635C12.4198 2.30973 11.2179 2.0309 9.99998 2.03125ZM9.99998 17.0312C8.73799 17.0309 7.49936 16.6909 6.41405 16.0469C6.33944 16.0071 6.25641 15.9856 6.17186 15.9844C6.12958 15.9818 6.08721 15.9871 6.04686 16L3.45311 16.7422C3.42596 16.7505 3.39705 16.7513 3.36948 16.7445C3.34191 16.7377 3.31673 16.7234 3.29664 16.7033C3.27656 16.6833 3.26232 16.6581 3.25548 16.6305C3.24864 16.6029 3.24944 16.574 3.2578 16.5469L3.99998 13.9531C4.0175 13.8919 4.02238 13.8278 4.01433 13.7647C4.00627 13.7016 3.98544 13.6408 3.95311 13.5859C3.16192 12.2515 2.83426 10.6929 3.02119 9.1528C3.20811 7.61275 3.89911 6.17775 4.98657 5.07133C6.07402 3.96491 7.49685 3.24919 9.03345 3.03567C10.57 2.82214 12.1341 3.1228 13.482 3.8908C14.83 4.6588 15.886 5.85103 16.4858 7.28177C17.0855 8.71251 17.1953 10.3014 16.7979 11.801C16.4005 13.3006 15.5183 14.6267 14.2888 15.5727C13.0592 16.5187 11.5513 17.0315 9.99998 17.0312ZM14.0234 11.3125L12.4219 10.3984C12.2533 10.3033 12.0625 10.2547 11.869 10.2574C11.6754 10.2602 11.4861 10.3142 11.3203 10.4141L10.3203 11.0156C9.75195 10.7132 9.28679 10.248 8.98436 9.67969L9.58592 8.67969C9.68576 8.51388 9.73981 8.32454 9.74255 8.13102C9.7453 7.93749 9.69664 7.7467 9.60155 7.57813L8.68748 5.97656C8.59873 5.82284 8.47124 5.69505 8.31771 5.60595C8.16419 5.51685 7.98999 5.46955 7.81248 5.46875C7.10935 5.46875 6.43491 5.74753 5.93699 6.24398C5.43907 6.74044 5.1583 7.41406 5.15623 8.11719C5.15521 9.00016 5.32823 9.87468 5.66542 10.6907C6.00261 11.5068 6.49735 12.2484 7.12135 12.8731C7.74534 13.4978 8.48636 13.9934 9.30202 14.3316C10.1177 14.6697 10.992 14.8438 11.875 14.8438H11.8828C12.5859 14.8417 13.2595 14.5609 13.756 14.063C14.2525 13.5651 14.5312 12.8906 14.5312 12.1875C14.5304 12.01 14.4831 11.8358 14.394 11.6823C14.3049 11.5287 14.1771 11.4013 14.0234 11.3125ZM11.8828 13.9062H11.875C10.341 13.9042 8.87052 13.2933 7.78655 12.2079C6.70258 11.1225 6.09373 9.65119 6.09373 8.11719C6.0958 7.6627 6.27779 7.22754 6.5999 6.9069C6.922 6.58626 7.35799 6.40625 7.81248 6.40625C7.83657 6.40822 7.85896 6.41942 7.87498 6.4375L8.78905 8.03906C8.80159 8.0635 8.80747 8.0908 8.8061 8.11824C8.80473 8.14567 8.79615 8.17225 8.78123 8.19531L8.05467 9.42188C8.01353 9.485 7.98909 9.55754 7.98362 9.63269C7.97816 9.70784 7.99185 9.78315 8.02342 9.85156C8.45052 10.7942 9.20576 11.5495 10.1484 11.9766C10.2168 12.0081 10.2921 12.0218 10.3673 12.0164C10.4424 12.0109 10.515 11.9864 10.5781 11.9453L11.8047 11.2188C11.8277 11.2038 11.8543 11.1953 11.8817 11.1939C11.9092 11.1925 11.9365 11.1984 11.9609 11.2109L13.5625 12.125C13.5806 12.141 13.5918 12.1634 13.5937 12.1875C13.5937 12.642 13.4137 13.078 13.0931 13.4001C12.7724 13.7222 12.3373 13.9042 11.8828 13.9062Z" fill="#8F7B6C"/>
</svg>
