<svg width="32" height="33" viewBox="0 0 32 33" fill="none" xmlns="http://www.w3.org/2000/svg">
<path d="M16 3.74512C13.7767 3.74548 11.5922 4.3272 9.66311 5.43256C7.73407 6.53793 6.1276 8.1285 5.00311 10.0465C3.87862 11.9644 3.2752 14.1431 3.25273 16.3662C3.23025 18.5894 3.78951 20.7798 4.875 22.7201L3.775 26.5576C3.68517 26.858 3.67828 27.177 3.75504 27.4809C3.83181 27.7849 3.98938 28.0624 4.21105 28.2841C4.43271 28.5057 4.71022 28.6633 5.01417 28.7401C5.31811 28.8168 5.63716 28.8099 5.9375 28.7201L9.775 27.6201C11.4754 28.5721 13.3713 29.1217 15.3173 29.2266C17.2632 29.3315 19.2073 28.989 21.0001 28.2253C22.793 27.4617 24.387 26.2972 25.6596 24.8214C26.9322 23.3455 27.8496 21.5976 28.3412 19.7119C28.8329 17.8262 28.8858 15.8529 28.4958 13.9436C28.1058 12.0343 27.2833 10.2397 26.0916 8.69787C24.8998 7.15601 23.3705 5.90785 21.6211 5.04927C19.8717 4.19069 17.9487 3.74455 16 3.74512ZM16 27.7451C13.9808 27.7445 11.999 27.2005 10.2625 26.1701C10.1431 26.1064 10.0103 26.0721 9.875 26.0701C9.80736 26.0661 9.73955 26.0745 9.675 26.0951L5.525 27.2826C5.48156 27.296 5.4353 27.2973 5.39119 27.2863C5.34708 27.2754 5.30679 27.2526 5.27465 27.2205C5.24251 27.1883 5.21974 27.148 5.20879 27.1039C5.19784 27.0598 5.19912 27.0136 5.2125 26.9701L6.4 22.8201C6.42803 22.7222 6.43584 22.6197 6.42295 22.5187C6.41005 22.4176 6.37672 22.3203 6.325 22.2326C5.05909 20.0975 4.53484 17.6037 4.83392 15.1396C5.133 12.6755 6.23861 10.3795 7.97853 8.60924C9.71845 6.83897 11.995 5.69383 14.4535 5.35219C16.9121 5.01055 19.4146 5.49159 21.5713 6.7204C23.7279 7.9492 25.4177 9.85676 26.3773 12.1459C27.3369 14.4351 27.5124 16.9774 26.8766 19.3768C26.2408 21.7761 24.8294 23.8979 22.8621 25.4115C20.8948 26.9251 18.4822 27.7456 16 27.7451ZM22.4375 18.5951L19.875 17.1326C19.6053 16.9805 19.3 16.9026 18.9904 16.907C18.6807 16.9114 18.3778 16.9979 18.1125 17.1576L16.5125 18.1201C15.6031 17.6362 14.8589 16.892 14.375 15.9826L15.3375 14.3826C15.4972 14.1173 15.5837 13.8144 15.5881 13.5047C15.5925 13.1951 15.5146 12.8898 15.3625 12.6201L13.9 10.0576C13.758 9.81165 13.554 9.6072 13.3084 9.46464C13.0627 9.32208 12.784 9.24639 12.5 9.24512C11.375 9.24511 10.2959 9.69116 9.4992 10.4855C8.70253 11.2798 8.25331 12.3576 8.25 13.4826C8.24835 14.8954 8.5252 16.2946 9.0647 17.6003C9.6042 18.906 10.3958 20.0925 11.3942 21.0921C12.3926 22.0917 13.5782 22.8846 14.8833 23.4256C16.1883 23.9666 17.5872 24.2451 19 24.2451H19.0125C20.1375 24.2418 21.2153 23.7926 22.0096 22.9959C22.804 22.1992 23.25 21.1201 23.25 19.9951C23.2487 19.7111 23.173 19.4324 23.0305 19.1868C22.8879 18.9411 22.6835 18.7371 22.4375 18.5951ZM19.0125 22.7451H19C16.5456 22.7418 14.1929 21.7645 12.4585 20.0278C10.7241 18.2911 9.74999 15.937 9.75 13.4826C9.7533 12.7554 10.0445 12.0592 10.5599 11.5461C11.0752 11.0331 11.7728 10.7451 12.5 10.7451C12.5385 10.7483 12.5744 10.7662 12.6 10.7951L14.0625 13.3576C14.0826 13.3967 14.092 13.4404 14.0898 13.4843C14.0876 13.5282 14.0739 13.5707 14.05 13.6076L12.8875 15.5701C12.8217 15.6711 12.7826 15.7872 12.7738 15.9074C12.7651 16.0277 12.787 16.1482 12.8375 16.2576C13.5209 17.7659 14.7292 18.9743 16.2375 19.6576C16.347 19.7081 16.4675 19.73 16.5877 19.7213C16.7079 19.7125 16.824 19.6734 16.925 19.6076L18.8875 18.4451C18.9244 18.4212 18.9669 18.4075 19.0108 18.4053C19.0547 18.4031 19.0984 18.4125 19.1375 18.4326L21.7 19.8951C21.7289 19.9208 21.7468 19.9566 21.75 19.9951C21.75 20.7223 21.462 21.4199 20.949 21.9353C20.4359 22.4506 19.7397 22.7418 19.0125 22.7451Z" fill="#221207"/>
</svg>
