<svg width="191" height="41" viewBox="0 0 191 41" fill="none" xmlns="http://www.w3.org/2000/svg">
<path d="M0 17.7677V1.26123H10.4327V3.80985H3.00118V8.0258H9.59902V10.5744H3.00118V17.7677H0Z" fill="#48202C"/>
<path d="M22.4322 1.0945C24.8141 1.0945 26.6323 1.53118 27.8867 2.40454C29.1571 3.2779 29.7922 4.61175 29.7922 6.40611C29.7922 8.64509 28.6886 10.1616 26.4814 10.9555C26.7831 11.3207 27.1245 11.7654 27.5056 12.2894C27.8867 12.8134 28.2758 13.385 28.6727 14.0043C29.0697 14.6078 29.4508 15.235 29.816 15.886C30.1813 16.5212 30.5068 17.1484 30.7926 17.7677H27.4342C27.1325 17.1961 26.8069 16.6244 26.4576 16.0528C26.1082 15.4652 25.751 14.9015 25.3857 14.3616C25.0364 13.8058 24.687 13.2898 24.3377 12.8134C23.9884 12.3211 23.6628 11.8845 23.3611 11.5034C23.1388 11.5192 22.9483 11.5272 22.7895 11.5272C22.6307 11.5272 22.4798 11.5272 22.3369 11.5272H20.884V17.7677H17.8828V1.49942C18.6132 1.34063 19.3913 1.23741 20.217 1.18977C21.0428 1.12626 21.7811 1.0945 22.4322 1.0945ZM22.6466 3.69076C22.0114 3.69076 21.4239 3.71458 20.884 3.76221V9.09765H22.194C22.9244 9.09765 23.5676 9.05795 24.1233 8.97855C24.6791 8.89916 25.1396 8.75624 25.5048 8.54981C25.8859 8.34338 26.1718 8.06549 26.3623 7.71615C26.5529 7.36681 26.6481 6.92219 26.6481 6.38229C26.6481 5.87416 26.5529 5.44542 26.3623 5.09607C26.1718 4.74673 25.8939 4.46884 25.5286 4.26241C25.1793 4.05598 24.7585 3.91307 24.2662 3.83367C23.774 3.73839 23.2341 3.69076 22.6466 3.69076Z" fill="#48202C"/>
<path d="M37.8823 17.7677V1.26123H48.4817V3.80985H40.8835V7.88288H47.648V10.3839H40.8835V15.2191H49.0533V17.7677H37.8823Z" fill="#48202C"/>
<path d="M67.7259 17.7677C67.186 16.8626 66.5826 15.894 65.9156 14.8618C65.2487 13.8138 64.558 12.7658 63.8434 11.7177C63.1288 10.6538 62.3984 9.6296 61.6521 8.64509C60.9216 7.64469 60.2229 6.74752 59.556 5.95355V17.7677H56.6024V1.26123H59.0558C59.691 1.92816 60.3738 2.72212 61.1042 3.64312C61.8347 4.54824 62.5651 5.49305 63.2956 6.47757C64.0419 7.46208 64.7564 8.45454 65.4393 9.45493C66.1379 10.4394 66.7572 11.3604 67.2971 12.2179V1.26123H70.2745V17.7677H67.7259Z" fill="#48202C"/>
<path d="M86.334 18.125C85.0954 18.125 83.9839 17.9345 82.9994 17.5534C82.0149 17.1723 81.1812 16.6165 80.4984 15.886C79.8156 15.1397 79.2916 14.2346 78.9263 13.1707C78.5611 12.1068 78.3785 10.8841 78.3785 9.50257C78.3785 8.12107 78.5849 6.89837 78.9978 5.83446C79.4265 4.77055 80.0061 3.87337 80.7366 3.14292C81.467 2.3966 82.3245 1.83288 83.309 1.45178C84.2935 1.07068 85.3495 0.880127 86.4769 0.880127C87.1597 0.880127 87.779 0.935704 88.3348 1.04686C88.8906 1.14214 89.3749 1.25329 89.7878 1.38032C90.2006 1.50736 90.542 1.64233 90.812 1.78525C91.0819 1.92816 91.2725 2.03137 91.3836 2.09489L90.5023 4.54824C90.1212 4.31005 89.5734 4.08774 88.8588 3.88131C88.1601 3.659 87.3979 3.54784 86.5722 3.54784C85.8576 3.54784 85.1907 3.67488 84.5714 3.92895C83.9521 4.16714 83.4122 4.53236 82.9517 5.02462C82.5071 5.51687 82.1578 6.13616 81.9037 6.88249C81.6496 7.62881 81.5226 8.49423 81.5226 9.47875C81.5226 10.3521 81.6179 11.154 81.8084 11.8845C82.0149 12.6149 82.3245 13.2501 82.7374 13.79C83.1502 14.314 83.6742 14.7268 84.3094 15.0286C84.9446 15.3144 85.7068 15.4573 86.596 15.4573C87.6599 15.4573 88.5254 15.3541 89.1923 15.1476C89.8592 14.9253 90.3753 14.7189 90.7405 14.5284L91.5504 16.9817C91.3598 17.1087 91.0978 17.2358 90.7643 17.3628C90.4467 17.4898 90.0656 17.6169 89.621 17.7439C89.1764 17.8551 88.6762 17.9424 88.1204 18.0059C87.5647 18.0853 86.9692 18.125 86.334 18.125Z" fill="#48202C"/>
<path d="M109.121 1.26123H112.123V17.7677H109.121V10.4553H101.952V17.7677H98.9508V1.26123H101.952V7.85906H109.121V1.26123Z" fill="#48202C"/>
<path d="M141.018 17.7677C140.606 17.1326 140.129 16.4656 139.589 15.7669C139.049 15.0683 138.478 14.3934 137.874 13.7423C137.287 13.0913 136.675 12.472 136.04 11.8845C135.405 11.2969 134.778 10.7888 134.159 10.36V17.7677H131.157V1.26123H134.159V8.07343C134.683 7.54942 135.23 6.99364 135.802 6.40611C136.374 5.8027 136.938 5.19929 137.493 4.59587C138.065 3.97658 138.605 3.38111 139.113 2.80946C139.621 2.2378 140.082 1.72173 140.494 1.26123H144.091C143.567 1.86464 143.011 2.49187 142.424 3.14292C141.836 3.79397 141.233 4.45296 140.614 5.11989C139.994 5.77094 139.367 6.42199 138.732 7.07304C138.113 7.72409 137.501 8.34338 136.898 8.93091C137.565 9.43905 138.24 10.0345 138.922 10.7173C139.621 11.3843 140.304 12.1068 140.971 12.8849C141.638 13.6471 142.273 14.449 142.876 15.2906C143.496 16.1163 144.059 16.942 144.567 17.7677H141.018Z" fill="#48202C"/>
<path d="M151.436 1.26123H154.437V17.7677H151.436V1.26123Z" fill="#48202C"/>
<path d="M167.156 15.5287C168.236 15.5287 169.022 15.3461 169.514 14.9809C170.007 14.6157 170.253 14.0996 170.253 13.4327C170.253 13.0357 170.165 12.6943 169.991 12.4085C169.832 12.1226 169.594 11.8686 169.276 11.6463C168.975 11.4081 168.601 11.1937 168.157 11.0032C167.712 10.7967 167.204 10.5982 166.632 10.4077C166.061 10.2013 165.505 9.97895 164.965 9.74076C164.441 9.48669 163.973 9.17704 163.56 8.81182C163.163 8.4466 162.837 8.00992 162.583 7.50178C162.345 6.99364 162.226 6.38229 162.226 5.66773C162.226 4.17507 162.742 3.00795 163.774 2.16635C164.806 1.30887 166.212 0.880127 167.99 0.880127C169.022 0.880127 169.935 0.999222 170.729 1.23741C171.539 1.45972 172.174 1.70585 172.635 1.9758L171.706 4.40532C171.166 4.10362 170.57 3.87337 169.919 3.71458C169.284 3.55578 168.625 3.47639 167.942 3.47639C167.133 3.47639 166.497 3.64312 166.037 3.97658C165.592 4.31005 165.37 4.77849 165.37 5.3819C165.37 5.74712 165.441 6.06471 165.584 6.33465C165.743 6.58872 165.957 6.81897 166.227 7.0254C166.513 7.23183 166.839 7.42238 167.204 7.59706C167.585 7.77173 167.998 7.93846 168.443 8.09725C169.221 8.38308 169.911 8.67685 170.515 8.97855C171.134 9.26438 171.65 9.61372 172.063 10.0266C172.492 10.4236 172.817 10.8999 173.04 11.4557C173.262 11.9956 173.373 12.6546 173.373 13.4327C173.373 14.9253 172.841 16.0845 171.777 16.9102C170.729 17.7201 169.189 18.125 167.156 18.125C166.474 18.125 165.846 18.0774 165.275 17.9821C164.719 17.9027 164.219 17.7995 163.774 17.6725C163.345 17.5454 162.972 17.4184 162.655 17.2913C162.337 17.1484 162.083 17.0214 161.892 16.9102L162.774 14.4569C163.202 14.6951 163.782 14.9333 164.512 15.1715C165.243 15.4097 166.124 15.5287 167.156 15.5287Z" fill="#48202C"/>
<path d="M184.783 15.5287C185.863 15.5287 186.649 15.3461 187.141 14.9809C187.634 14.6157 187.88 14.0996 187.88 13.4327C187.88 13.0357 187.792 12.6943 187.618 12.4085C187.459 12.1226 187.221 11.8686 186.903 11.6463C186.601 11.4081 186.228 11.1937 185.784 11.0032C185.339 10.7967 184.831 10.5982 184.259 10.4077C183.688 10.2013 183.132 9.97895 182.592 9.74076C182.068 9.48669 181.599 9.17704 181.187 8.81182C180.79 8.4466 180.464 8.00992 180.21 7.50178C179.972 6.99364 179.853 6.38229 179.853 5.66773C179.853 4.17507 180.369 3.00795 181.401 2.16635C182.433 1.30887 183.838 0.880127 185.617 0.880127C186.649 0.880127 187.562 0.999222 188.356 1.23741C189.166 1.45972 189.801 1.70585 190.262 1.9758L189.333 4.40532C188.793 4.10362 188.197 3.87337 187.546 3.71458C186.911 3.55578 186.252 3.47639 185.569 3.47639C184.759 3.47639 184.124 3.64312 183.664 3.97658C183.219 4.31005 182.997 4.77849 182.997 5.3819C182.997 5.74712 183.068 6.06471 183.211 6.33465C183.37 6.58872 183.584 6.81897 183.854 7.0254C184.14 7.23183 184.466 7.42238 184.831 7.59706C185.212 7.77173 185.625 7.93846 186.069 8.09725C186.848 8.38308 187.538 8.67685 188.142 8.97855C188.761 9.26438 189.277 9.61372 189.69 10.0266C190.119 10.4236 190.444 10.8999 190.667 11.4557C190.889 11.9956 191 12.6546 191 13.4327C191 14.9253 190.468 16.0845 189.404 16.9102C188.356 17.7201 186.816 18.125 184.783 18.125C184.1 18.125 183.473 18.0774 182.902 17.9821C182.346 17.9027 181.846 17.7995 181.401 17.6725C180.972 17.5454 180.599 17.4184 180.282 17.2913C179.964 17.1484 179.71 17.0214 179.519 16.9102L180.401 14.4569C180.829 14.6951 181.409 14.9333 182.139 15.1715C182.87 15.4097 183.751 15.5287 184.783 15.5287Z" fill="#48202C"/>
<path d="M28.3043 38.5104C27.8177 38.5104 27.3811 38.4355 26.9943 38.2858C26.6075 38.1361 26.28 37.9177 26.0118 37.6308C25.7435 37.3376 25.5377 36.982 25.3942 36.564C25.2507 36.1461 25.179 35.6657 25.179 35.123C25.179 34.5803 25.2601 34.0999 25.4222 33.6819C25.5907 33.264 25.8184 32.9115 26.1053 32.6246C26.3923 32.3314 26.7292 32.1099 27.1159 31.9602C27.5027 31.8105 27.9176 31.7356 28.3605 31.7356C28.6287 31.7356 28.872 31.7574 29.0904 31.8011C29.3087 31.8385 29.499 31.8822 29.6612 31.9321C29.8234 31.982 29.9575 32.035 30.0635 32.0912C30.1696 32.1473 30.2444 32.1879 30.2881 32.2128L29.9419 33.1766C29.7922 33.0831 29.5769 32.9957 29.2962 32.9146C29.0217 32.8273 28.7223 32.7836 28.3979 32.7836C28.1172 32.7836 27.8552 32.8335 27.6119 32.9333C27.3686 33.0269 27.1565 33.1704 26.9756 33.3638C26.8009 33.5572 26.6637 33.8005 26.5639 34.0937C26.464 34.3869 26.4141 34.7269 26.4141 35.1136C26.4141 35.4567 26.4516 35.7718 26.5264 36.0587C26.6075 36.3457 26.7292 36.5952 26.8914 36.8073C27.0536 37.0132 27.2594 37.1754 27.509 37.2939C27.7585 37.4062 28.0579 37.4623 28.4073 37.4623C28.8252 37.4623 29.1652 37.4218 29.4272 37.3407C29.6892 37.2534 29.892 37.1723 30.0355 37.0974L30.3536 38.0612C30.2788 38.1111 30.1758 38.161 30.0448 38.2109C29.9201 38.2608 29.7703 38.3107 29.5957 38.3607C29.421 38.4043 29.2245 38.4386 29.0061 38.4636C28.7878 38.4948 28.5539 38.5104 28.3043 38.5104Z" fill="#48202C"/>
<path d="M37.5373 31.8853H38.7163V38.37H37.5373V35.4973H34.7207V38.37H33.5416V31.8853H34.7207V34.4773H37.5373V31.8853Z" fill="#48202C"/>
<path d="M43.3833 35.123C43.3833 35.4786 43.427 35.803 43.5143 36.0962C43.6017 36.3831 43.7264 36.6295 43.8886 36.8354C44.057 37.035 44.2598 37.191 44.4968 37.3033C44.7339 37.4156 45.0021 37.4717 45.3016 37.4717C45.5948 37.4717 45.8599 37.4156 46.097 37.3033C46.334 37.191 46.5336 37.035 46.6958 36.8354C46.8643 36.6295 46.9922 36.3831 47.0795 36.0962C47.1668 35.803 47.2105 35.4786 47.2105 35.123C47.2105 34.7674 47.1668 34.4461 47.0795 34.1592C46.9922 33.866 46.8643 33.6196 46.6958 33.4199C46.5336 33.2141 46.334 33.055 46.097 32.9427C45.8599 32.8304 45.5948 32.7743 45.3016 32.7743C45.0021 32.7743 44.7339 32.8304 44.4968 32.9427C44.2598 33.055 44.057 33.2141 43.8886 33.4199C43.7264 33.6258 43.6017 33.8722 43.5143 34.1592C43.427 34.4461 43.3833 34.7674 43.3833 35.123ZM48.4457 35.123C48.4457 35.6782 48.3615 36.1679 48.193 36.5921C48.0308 37.0163 47.8063 37.3719 47.5193 37.6588C47.2386 37.9396 46.9079 38.1517 46.5274 38.2951C46.1469 38.4386 45.7414 38.5104 45.3109 38.5104C44.8805 38.5104 44.4719 38.4386 44.0851 38.2951C43.7046 38.1517 43.3708 37.9396 43.0839 37.6588C42.8032 37.3719 42.5786 37.0163 42.4101 36.5921C42.2417 36.1679 42.1575 35.6782 42.1575 35.123C42.1575 34.5678 42.2417 34.0812 42.4101 33.6632C42.5786 33.239 42.8063 32.8834 43.0932 32.5965C43.3864 32.3095 43.7233 32.0943 44.1038 31.9508C44.4844 31.8073 44.8867 31.7356 45.3109 31.7356C45.7351 31.7356 46.1375 31.8073 46.518 31.9508C46.8986 32.0943 47.2292 32.3095 47.5099 32.5965C47.7969 32.8834 48.0246 33.239 48.193 33.6632C48.3615 34.0812 48.4457 34.5678 48.4457 35.123Z" fill="#48202C"/>
<path d="M54.7734 38.5104C54.2868 38.5104 53.8502 38.4355 53.4634 38.2858C53.0766 38.1361 52.7491 37.9177 52.4808 37.6308C52.2126 37.3376 52.0067 36.982 51.8633 36.564C51.7198 36.1461 51.648 35.6657 51.648 35.123C51.648 34.5803 51.7291 34.0999 51.8913 33.6819C52.0598 33.264 52.2875 32.9115 52.5744 32.6246C52.8614 32.3314 53.1982 32.1099 53.585 31.9602C53.9718 31.8105 54.3866 31.7356 54.8296 31.7356C55.0978 31.7356 55.3411 31.7574 55.5594 31.8011C55.7778 31.8385 55.968 31.8822 56.1302 31.9321C56.2924 31.982 56.4266 32.035 56.5326 32.0912C56.6387 32.1473 56.7135 32.1879 56.7572 32.2128L56.411 33.1766C56.2612 33.0831 56.046 32.9957 55.7653 32.9146C55.4908 32.8273 55.1914 32.7836 54.867 32.7836C54.5863 32.7836 54.3243 32.8335 54.081 32.9333C53.8377 33.0269 53.6256 33.1704 53.4447 33.3638C53.27 33.5572 53.1327 33.8005 53.0329 34.0937C52.9331 34.3869 52.8832 34.7269 52.8832 35.1136C52.8832 35.4567 52.9206 35.7718 52.9955 36.0587C53.0766 36.3457 53.1982 36.5952 53.3604 36.8073C53.5226 37.0132 53.7285 37.1754 53.978 37.2939C54.2276 37.4062 54.527 37.4623 54.8763 37.4623C55.2943 37.4623 55.6343 37.4218 55.8963 37.3407C56.1583 37.2534 56.3611 37.1723 56.5045 37.0974L56.8227 38.0612C56.7478 38.1111 56.6449 38.161 56.5139 38.2109C56.3891 38.2608 56.2394 38.3107 56.0647 38.3607C55.8901 38.4043 55.6936 38.4386 55.4752 38.4636C55.2569 38.4948 55.0229 38.5104 54.7734 38.5104Z" fill="#48202C"/>
<path d="M60.8101 35.123C60.8101 35.4786 60.8537 35.803 60.9411 36.0962C61.0284 36.3831 61.1532 36.6295 61.3153 36.8354C61.4838 37.035 61.6865 37.191 61.9236 37.3033C62.1606 37.4156 62.4289 37.4717 62.7283 37.4717C63.0215 37.4717 63.2866 37.4156 63.5237 37.3033C63.7608 37.191 63.9604 37.035 64.1226 36.8354C64.291 36.6295 64.4189 36.3831 64.5062 36.0962C64.5936 35.803 64.6372 35.4786 64.6372 35.123C64.6372 34.7674 64.5936 34.4461 64.5062 34.1592C64.4189 33.866 64.291 33.6196 64.1226 33.4199C63.9604 33.2141 63.7608 33.055 63.5237 32.9427C63.2866 32.8304 63.0215 32.7743 62.7283 32.7743C62.4289 32.7743 62.1606 32.8304 61.9236 32.9427C61.6865 33.055 61.4838 33.2141 61.3153 33.4199C61.1532 33.6258 61.0284 33.8722 60.9411 34.1592C60.8537 34.4461 60.8101 34.7674 60.8101 35.123ZM65.8724 35.123C65.8724 35.6782 65.7882 36.1679 65.6198 36.5921C65.4576 37.0163 65.233 37.3719 64.946 37.6588C64.6653 37.9396 64.3347 38.1517 63.9541 38.2951C63.5736 38.4386 63.1681 38.5104 62.7377 38.5104C62.3072 38.5104 61.8986 38.4386 61.5119 38.2951C61.1313 38.1517 60.7976 37.9396 60.5106 37.6588C60.2299 37.3719 60.0053 37.0163 59.8369 36.5921C59.6684 36.1679 59.5842 35.6782 59.5842 35.123C59.5842 34.5678 59.6684 34.0812 59.8369 33.6632C60.0053 33.239 60.233 32.8834 60.52 32.5965C60.8132 32.3095 61.15 32.0943 61.5306 31.9508C61.9111 31.8073 62.3135 31.7356 62.7377 31.7356C63.1619 31.7356 63.5643 31.8073 63.9448 31.9508C64.3253 32.0943 64.656 32.3095 64.9367 32.5965C65.2236 32.8834 65.4513 33.239 65.6198 33.6632C65.7882 34.0812 65.8724 34.5678 65.8724 35.123Z" fill="#48202C"/>
<path d="M73.4166 37.35V38.37H69.3181V31.8853H70.4971V37.35H73.4166Z" fill="#48202C"/>
<path d="M81.0108 38.37C80.9235 38.1142 80.833 37.8616 80.7395 37.6121C80.6459 37.3625 80.5554 37.1068 80.4681 36.8447H77.7357C77.6484 37.1068 77.5579 37.3656 77.4644 37.6214C77.377 37.8709 77.2897 38.1205 77.2024 38.37H75.9765C76.2198 37.6776 76.4506 37.0381 76.669 36.4517C76.8873 35.8653 77.0994 35.3101 77.3053 34.7861C77.5174 34.2621 77.7264 33.763 77.9322 33.2889C78.1381 32.8148 78.3502 32.3469 78.5685 31.8853H79.6821C79.9004 32.3469 80.1125 32.8148 80.3184 33.2889C80.5242 33.763 80.7301 34.2621 80.936 34.7861C81.1481 35.3101 81.3633 35.8653 81.5816 36.4517C81.8062 37.0381 82.0401 37.6776 82.2834 38.37H81.0108ZM79.1019 33.1392C78.9584 33.4698 78.7931 33.8722 78.606 34.3463C78.4251 34.8204 78.2348 35.3351 78.0352 35.8903H80.1687C79.969 35.3351 79.7757 34.8173 79.5885 34.337C79.4014 33.8566 79.2392 33.4574 79.1019 33.1392Z" fill="#48202C"/>
<path d="M89.2449 31.8853V32.9053H87.2518V38.37H86.0634V32.9053H84.0703V31.8853H89.2449Z" fill="#48202C"/>
<path d="M92.2964 38.37V31.8853H96.4604V32.8866H93.4754V34.4867H96.1329V35.4692H93.4754V37.3688H96.685V38.37H92.2964Z" fill="#48202C"/>
<path d="M106.223 38.4449C105.88 38.4449 105.534 38.4324 105.185 38.4074C104.835 38.3887 104.53 38.3451 104.268 38.2764V31.9789C104.405 31.9539 104.552 31.9321 104.707 31.9134C104.863 31.8884 105.023 31.8697 105.185 31.8572C105.347 31.8448 105.506 31.8354 105.662 31.8292C105.824 31.8229 105.977 31.8198 106.12 31.8198C106.513 31.8198 106.878 31.851 107.215 31.9134C107.552 31.9695 107.842 32.0662 108.086 32.2035C108.335 32.3407 108.528 32.5216 108.666 32.7462C108.803 32.9708 108.872 33.2484 108.872 33.579C108.872 33.8847 108.797 34.1467 108.647 34.365C108.503 34.5834 108.301 34.758 108.039 34.889C108.432 35.0201 108.722 35.2134 108.909 35.4692C109.096 35.725 109.19 36.0494 109.19 36.4424C109.19 37.1099 108.946 37.6121 108.46 37.9489C107.973 38.2796 107.228 38.4449 106.223 38.4449ZM105.428 35.4505V37.4249C105.559 37.4374 105.699 37.4467 105.849 37.453C105.999 37.4592 106.136 37.4623 106.261 37.4623C106.504 37.4623 106.729 37.4467 106.935 37.4156C107.147 37.3844 107.328 37.3313 107.477 37.2565C107.633 37.1754 107.755 37.0693 107.842 36.9383C107.936 36.8073 107.983 36.6389 107.983 36.433C107.983 36.065 107.848 35.8092 107.58 35.6657C107.312 35.5222 106.941 35.4505 106.467 35.4505H105.428ZM105.428 34.5241H106.261C106.71 34.5241 107.062 34.4617 107.318 34.337C107.574 34.206 107.702 33.9751 107.702 33.6445C107.702 33.3326 107.568 33.1111 107.299 32.9801C107.037 32.8491 106.694 32.7836 106.27 32.7836C106.089 32.7836 105.927 32.7867 105.784 32.793C105.646 32.7992 105.528 32.8086 105.428 32.8211V34.5241Z" fill="#48202C"/>
<path d="M113.534 35.123C113.534 35.4786 113.577 35.803 113.665 36.0962C113.752 36.3831 113.877 36.6295 114.039 36.8354C114.207 37.035 114.41 37.191 114.647 37.3033C114.884 37.4156 115.152 37.4717 115.452 37.4717C115.745 37.4717 116.01 37.4156 116.247 37.3033C116.484 37.191 116.684 37.035 116.846 36.8354C117.015 36.6295 117.142 36.3831 117.23 36.0962C117.317 35.803 117.361 35.4786 117.361 35.123C117.361 34.7674 117.317 34.4461 117.23 34.1592C117.142 33.866 117.015 33.6196 116.846 33.4199C116.684 33.2141 116.484 33.055 116.247 32.9427C116.01 32.8304 115.745 32.7743 115.452 32.7743C115.152 32.7743 114.884 32.8304 114.647 32.9427C114.41 33.055 114.207 33.2141 114.039 33.4199C113.877 33.6258 113.752 33.8722 113.665 34.1592C113.577 34.4461 113.534 34.7674 113.534 35.123ZM118.596 35.123C118.596 35.6782 118.512 36.1679 118.343 36.5921C118.181 37.0163 117.957 37.3719 117.67 37.6588C117.389 37.9396 117.058 38.1517 116.678 38.2951C116.297 38.4386 115.892 38.5104 115.461 38.5104C115.031 38.5104 114.622 38.4386 114.235 38.2951C113.855 38.1517 113.521 37.9396 113.234 37.6588C112.953 37.3719 112.729 37.0163 112.56 36.5921C112.392 36.1679 112.308 35.6782 112.308 35.123C112.308 34.5678 112.392 34.0812 112.56 33.6632C112.729 33.239 112.957 32.8834 113.244 32.5965C113.537 32.3095 113.874 32.0943 114.254 31.9508C114.635 31.8073 115.037 31.7356 115.461 31.7356C115.885 31.7356 116.288 31.8073 116.668 31.9508C117.049 32.0943 117.38 32.3095 117.66 32.5965C117.947 32.8834 118.175 33.239 118.343 33.6632C118.512 34.0812 118.596 34.5678 118.596 35.123Z" fill="#48202C"/>
<path d="M124.54 38.5104C124.097 38.5104 123.717 38.448 123.398 38.3232C123.08 38.1922 122.815 38.0113 122.603 37.7805C122.397 37.5497 122.244 37.2783 122.145 36.9664C122.045 36.6545 121.995 36.3114 121.995 35.9371V31.8853H123.183V35.8248C123.183 36.118 123.214 36.3706 123.277 36.5827C123.345 36.7886 123.439 36.957 123.558 37.088C123.682 37.219 123.826 37.3157 123.988 37.3781C124.156 37.4405 124.344 37.4717 124.549 37.4717C124.755 37.4717 124.942 37.4405 125.111 37.3781C125.279 37.3157 125.423 37.219 125.541 37.088C125.666 36.957 125.76 36.7886 125.822 36.5827C125.891 36.3706 125.925 36.118 125.925 35.8248V31.8853H127.113V35.9371C127.113 36.3114 127.06 36.6545 126.954 36.9664C126.855 37.2783 126.699 37.5497 126.486 37.7805C126.281 38.0113 126.015 38.1922 125.691 38.3232C125.367 38.448 124.983 38.5104 124.54 38.5104Z" fill="#48202C"/>
<path d="M135.293 31.8853V32.9053H133.3V38.37H132.111V32.9053H130.118V31.8853H135.293Z" fill="#48202C"/>
<path d="M138.344 31.8853H139.523V38.37H138.344V31.8853Z" fill="#48202C"/>
<path d="M144.193 35.123C144.193 35.4786 144.236 35.803 144.324 36.0962C144.411 36.3831 144.536 36.6295 144.698 36.8354C144.866 37.035 145.069 37.191 145.306 37.3033C145.543 37.4156 145.812 37.4717 146.111 37.4717C146.404 37.4717 146.669 37.4156 146.906 37.3033C147.143 37.191 147.343 37.035 147.505 36.8354C147.674 36.6295 147.802 36.3831 147.889 36.0962C147.976 35.803 148.02 35.4786 148.02 35.123C148.02 34.7674 147.976 34.4461 147.889 34.1592C147.802 33.866 147.674 33.6196 147.505 33.4199C147.343 33.2141 147.143 33.055 146.906 32.9427C146.669 32.8304 146.404 32.7743 146.111 32.7743C145.812 32.7743 145.543 32.8304 145.306 32.9427C145.069 33.055 144.866 33.2141 144.698 33.4199C144.536 33.6258 144.411 33.8722 144.324 34.1592C144.236 34.4461 144.193 34.7674 144.193 35.123ZM149.255 35.123C149.255 35.5909 149.196 36.0119 149.077 36.3862C148.959 36.7605 148.793 37.088 148.581 37.3688C148.369 37.6432 148.12 37.8678 147.833 38.0425C147.552 38.2172 147.243 38.3419 146.906 38.4168C146.925 38.5478 146.991 38.6601 147.103 38.7537C147.215 38.8472 147.356 38.9252 147.524 38.9876C147.699 39.05 147.895 39.0999 148.113 39.1373C148.338 39.181 148.572 39.2122 148.815 39.2309L148.553 40.1198C147.749 40.0575 147.109 39.9015 146.635 39.652C146.161 39.4087 145.858 39.0188 145.727 38.4823C145.341 38.4449 144.979 38.3451 144.642 38.1829C144.311 38.0207 144.021 37.7992 143.772 37.5185C143.522 37.2378 143.326 36.8978 143.182 36.4985C143.039 36.0993 142.967 35.6408 142.967 35.123C142.967 34.5678 143.051 34.0812 143.22 33.6632C143.388 33.239 143.616 32.8834 143.903 32.5965C144.196 32.3095 144.533 32.0943 144.913 31.9508C145.294 31.8073 145.696 31.7356 146.12 31.7356C146.545 31.7356 146.947 31.8073 147.327 31.9508C147.708 32.0943 148.039 32.3095 148.319 32.5965C148.606 32.8834 148.834 33.239 149.002 33.6632C149.171 34.0812 149.255 34.5678 149.255 35.123Z" fill="#48202C"/>
<path d="M155.199 38.5104C154.756 38.5104 154.376 38.448 154.058 38.3232C153.739 38.1922 153.474 38.0113 153.262 37.7805C153.056 37.5497 152.903 37.2783 152.804 36.9664C152.704 36.6545 152.654 36.3114 152.654 35.9371V31.8853H153.842V35.8248C153.842 36.118 153.874 36.3706 153.936 36.5827C154.005 36.7886 154.098 36.957 154.217 37.088C154.341 37.219 154.485 37.3157 154.647 37.3781C154.816 37.4405 155.003 37.4717 155.209 37.4717C155.414 37.4717 155.602 37.4405 155.77 37.3781C155.938 37.3157 156.082 37.219 156.2 37.088C156.325 36.957 156.419 36.7886 156.481 36.5827C156.55 36.3706 156.584 36.118 156.584 35.8248V31.8853H157.772V35.9371C157.772 36.3114 157.719 36.6545 157.613 36.9664C157.514 37.2783 157.358 37.5497 157.146 37.7805C156.94 38.0113 156.675 38.1922 156.35 38.3232C156.026 38.448 155.642 38.5104 155.199 38.5104Z" fill="#48202C"/>
<path d="M161.432 38.37V31.8853H165.596V32.8866H162.611V34.4867H165.269V35.4692H162.611V37.3688H165.821V38.37H161.432Z" fill="#48202C"/>
</svg>
