<svg width="20" height="20" viewBox="0 0 20 20" fill="none" xmlns="http://www.w3.org/2000/svg">
<path d="M17.5 4.0625H2.5C2.41712 4.0625 2.33763 4.09542 2.27903 4.15403C2.22042 4.21263 2.1875 4.29212 2.1875 4.375V15C2.1875 15.2486 2.28627 15.4871 2.46209 15.6629C2.6379 15.8387 2.87636 15.9375 3.125 15.9375H16.875C17.1236 15.9375 17.3621 15.8387 17.5379 15.6629C17.7137 15.4871 17.8125 15.2486 17.8125 15V4.375C17.8125 4.29212 17.7796 4.21263 17.721 4.15403C17.6624 4.09542 17.5829 4.0625 17.5 4.0625ZM16.6953 4.6875L10.338 10.5182C10.1468 10.6935 9.85323 10.6935 9.66204 10.5182L3.30469 4.6875H16.6953ZM16.875 15.3125H3.125C3.04212 15.3125 2.96263 15.2796 2.90403 15.221C2.84542 15.1624 2.8125 15.0829 2.8125 15V5.08594L9.78906 11.4766C9.8458 11.531 9.92138 11.5614 10 11.5614C10.0786 11.5614 10.1542 11.531 10.2109 11.4766L17.1875 5.08594V15C17.1875 15.0829 17.1546 15.1624 17.096 15.221C17.0374 15.2796 16.9579 15.3125 16.875 15.3125Z" fill="#8F7B6C" stroke="#8F7B6C" stroke-width="0.25"/>
</svg>
