<svg width="32" height="33" viewBox="0 0 32 33" fill="none" xmlns="http://www.w3.org/2000/svg">
<path d="M16 10.7451C14.8628 10.7451 13.7511 11.0823 12.8055 11.7142C11.8599 12.346 11.1229 13.244 10.6877 14.2947C10.2525 15.3454 10.1386 16.5015 10.3605 17.6169C10.5824 18.7323 11.13 19.7568 11.9341 20.561C12.7383 21.3651 13.7628 21.9128 14.8782 22.1346C15.9936 22.3565 17.1498 22.2426 18.2004 21.8074C19.2511 21.3722 20.1491 20.6352 20.781 19.6896C21.4128 18.7441 21.75 17.6324 21.75 16.4951C21.75 14.9701 21.1442 13.5076 20.0659 12.4293C18.9875 11.3509 17.525 10.7451 16 10.7451ZM16 20.7451C15.1594 20.7451 14.3377 20.4959 13.6388 20.0289C12.9399 19.5619 12.3952 18.8981 12.0735 18.1215C11.7518 17.3449 11.6677 16.4904 11.8317 15.666C11.9956 14.8416 12.4004 14.0843 12.9948 13.4899C13.5892 12.8955 14.3464 12.4908 15.1709 12.3268C15.9953 12.1628 16.8498 12.247 17.6264 12.5686C18.403 12.8903 19.0668 13.435 19.5337 14.1339C20.0007 14.8329 20.25 15.6545 20.25 16.4951C20.2467 17.6213 19.7979 18.7004 19.0016 19.4967C18.2052 20.293 17.1262 20.7418 16 20.7451ZM21.5 4.24512H10.5C8.70979 4.24512 6.9929 4.95628 5.72703 6.22215C4.46116 7.48802 3.75 9.20491 3.75 10.9951V21.9951C3.75 23.7853 4.46116 25.5022 5.72703 26.7681C6.9929 28.034 8.70979 28.7451 10.5 28.7451H21.5C23.2902 28.7451 25.0071 28.034 26.273 26.7681C27.5388 25.5022 28.25 23.7853 28.25 21.9951V10.9951C28.25 9.20491 27.5388 7.48802 26.273 6.22215C25.0071 4.95628 23.2902 4.24512 21.5 4.24512ZM26.75 21.9951C26.75 23.3875 26.1969 24.7229 25.2123 25.7074C24.2277 26.692 22.8924 27.2451 21.5 27.2451H10.5C9.10761 27.2451 7.77225 26.692 6.78769 25.7074C5.80312 24.7229 5.25 23.3875 5.25 21.9951V10.9951C5.25 9.60273 5.80312 8.26737 6.78769 7.28281C7.77225 6.29824 9.10761 5.74512 10.5 5.74512H21.5C22.8924 5.74512 24.2277 6.29824 25.2123 7.28281C26.1969 8.26737 26.75 9.60273 26.75 10.9951V21.9951ZM23.75 9.99512C23.75 10.2423 23.6767 10.484 23.5393 10.6896C23.402 10.8951 23.2068 11.0554 22.9784 11.15C22.7499 11.2446 22.4986 11.2693 22.2561 11.2211C22.0137 11.1729 21.7909 11.0538 21.6161 10.879C21.4413 10.7042 21.3223 10.4815 21.274 10.239C21.2258 9.9965 21.2505 9.74517 21.3451 9.51676C21.4398 9.28835 21.6 9.09313 21.8055 8.95578C22.0111 8.81843 22.2528 8.74512 22.5 8.74512C22.8315 8.74512 23.1495 8.87681 23.3839 9.11123C23.6183 9.34565 23.75 9.6636 23.75 9.99512Z" fill="#221207"/>
</svg>
